<svg xmlns="http://www.w3.org/2000/svg" version="1.1" width="530.2mm" height="235.2mm" viewBox = " 0 0 1878.662962 833.3865119999999" >
<!-- Front--> 
<g transform="translate(22.5000185, 22.5000185) " > 
<polygon style="stroke:#000000; fill:none; stroke-width:0.90000074" points="0, 0 55.36421875, 0 55.36421875, 21.25986 110.7284375, 21.25986 110.7284375, 0 146.1615375, 0 146.1615375, 21.25986 181.59463749999998, 21.25986 181.59463749999998, 0 217.0277375, 0 217.0277375, 21.25986 252.46083749999997, 21.25986 252.46083749999997, 0 287.8939375, 0 287.8939375, 21.25986 323.32703749999996, 21.25986 323.32703749999996, 0 358.7601375, 0 358.7601375, 21.25986 394.19323749999995, 21.25986 394.19323749999995, 0 429.6263374999999, 0 429.6263374999999, 21.25986 465.05943749999994, 21.25986 465.05943749999994, 0 500.49253749999997, 0 500.49253749999997, 21.25986 555.85675625, 21.25986 555.85675625, 0 611.220975, 0 611.220975, 35.433099999999996 589.961115, 35.433099999999996 589.961115, 70.86619999999999 611.220975, 70.86619999999999 611.220975, 106.29929999999999 589.961115, 106.29929999999999 589.961115, 141.73239999999998 611.220975, 141.73239999999998 611.220975, 177.1655 555.85675625, 177.1655 555.85675625, 155.90564 500.49253749999997, 155.90564 500.49253749999997, 177.1655 465.05943749999994, 177.1655 465.05943749999994, 155.90564 429.6263374999999, 155.90564 429.6263374999999, 177.1655 394.19323749999995, 177.1655 394.19323749999995, 155.90564 358.7601375, 155.90564 358.7601375, 177.1655 323.32703749999996, 177.1655 323.32703749999996, 155.90564 287.8939375, 155.90564 287.8939375, 177.1655 252.46083749999997, 177.1655 252.46083749999997, 155.90564 217.0277375, 155.90564 217.0277375, 177.1655 181.59463749999998, 177.1655 181.59463749999998, 155.90564 146.1615375, 155.90564 146.1615375, 177.1655 110.7284375, 177.1655 110.7284375, 155.90564 55.36421875, 155.90564 55.36421875, 177.1655 0, 177.16549999999998 0, 141.73239999999998 21.25986, 141.73239999999998 21.25986, 106.29929999999999 0, 106.29929999999999 0, 70.86619999999999 21.25986, 70.86619999999999 21.25986, 35.433099999999996 0, 35.433099999999996 "/> 
</g>
<!-- Back--> 
<g transform="translate(633.7209935, 22.5000185) " > 
<polygon style="stroke:#000000; fill:none; stroke-width:0.90000074" points="0, 0 55.36421875, 0 55.36421875, 21.25986 110.7284375, 21.25986 110.7284375, 0 146.1615375, 0 146.1615375, 21.25986 181.59463749999998, 21.25986 181.59463749999998, 0 217.0277375, 0 217.0277375, 21.25986 252.46083749999997, 21.25986 252.46083749999997, 0 287.8939375, 0 287.8939375, 21.25986 323.32703749999996, 21.25986 323.32703749999996, 0 358.7601375, 0 358.7601375, 21.25986 394.19323749999995, 21.25986 394.19323749999995, 0 429.6263374999999, 0 429.6263374999999, 21.25986 465.05943749999994, 21.25986 465.05943749999994, 0 500.49253749999997, 0 500.49253749999997, 21.25986 555.85675625, 21.25986 555.85675625, 0 611.220975, 0 611.220975, 35.433099999999996 589.961115, 35.433099999999996 589.961115, 70.86619999999999 611.220975, 70.86619999999999 611.220975, 106.29929999999999 589.961115, 106.29929999999999 589.961115, 141.73239999999998 611.220975, 141.73239999999998 611.220975, 177.1655 555.85675625, 177.1655 555.85675625, 155.90564 500.49253749999997, 155.90564 500.49253749999997, 177.1655 465.05943749999994, 177.1655 465.05943749999994, 155.90564 429.6263374999999, 155.90564 429.6263374999999, 177.1655 394.19323749999995, 177.1655 394.19323749999995, 155.90564 358.7601375, 155.90564 358.7601375, 177.1655 323.32703749999996, 177.1655 323.32703749999996, 155.90564 287.8939375, 155.90564 287.8939375, 177.1655 252.46083749999997, 177.1655 252.46083749999997, 155.90564 217.0277375, 155.90564 217.0277375, 177.1655 181.59463749999998, 177.1655 181.59463749999998, 155.90564 146.1615375, 155.90564 146.1615375, 177.1655 110.7284375, 177.1655 110.7284375, 155.90564 55.36421875, 155.90564 55.36421875, 177.1655 0, 177.16549999999998 0, 141.73239999999998 21.25986, 141.73239999999998 21.25986, 106.29929999999999 0, 106.29929999999999 0, 70.86619999999999 21.25986, 70.86619999999999 21.25986, 35.433099999999996 0, 35.433099999999996 "/> 
</g>
<!-- Left--> 
<g transform="translate(1244.9419685, 22.5000185) " > 
<polygon style="stroke:#000000; fill:none; stroke-width:0.90000074" points="21.25986, 0 55.36421875, 0 55.36421875, 21.25986 110.7284375, 21.25986 110.7284375, 0 146.1615375, 0 146.1615375, 21.25986 181.59463749999998, 21.25986 181.59463749999998, 0 217.0277375, 0 217.0277375, 21.25986 252.46083749999997, 21.25986 252.46083749999997, 0 287.8939375, 0 287.8939375, 21.25986 323.32703749999996, 21.25986 323.32703749999996, 0 358.7601375, 0 358.7601375, 21.25986 394.19323749999995, 21.25986 394.19323749999995, 0 429.6263374999999, 0 429.6263374999999, 21.25986 465.05943749999994, 21.25986 465.05943749999994, 0 500.49253749999997, 0 500.49253749999997, 21.25986 555.85675625, 21.25986 555.85675625, 0 589.961115, 0 589.961115, 35.433099999999996 611.220975, 35.433099999999996 611.220975, 70.86619999999999 589.961115, 70.86619999999999 589.961115, 106.29929999999999 611.220975, 106.29929999999999 611.220975, 141.73239999999998 589.961115, 141.73239999999998 589.961115, 177.1655 555.85675625, 177.1655 555.85675625, 155.90564 500.49253749999997, 155.90564 500.49253749999997, 177.1655 465.05943749999994, 177.1655 465.05943749999994, 155.90564 429.6263374999999, 155.90564 429.6263374999999, 177.1655 394.19323749999995, 177.1655 394.19323749999995, 155.90564 358.7601375, 155.90564 358.7601375, 177.1655 323.32703749999996, 177.1655 323.32703749999996, 155.90564 287.8939375, 155.90564 287.8939375, 177.1655 252.46083749999997, 177.1655 252.46083749999997, 155.90564 217.0277375, 155.90564 217.0277375, 177.1655 181.59463749999998, 177.1655 181.59463749999998, 155.90564 146.1615375, 155.90564 146.1615375, 177.1655 110.7284375, 177.1655 110.7284375, 155.90564 55.36421875, 155.90564 55.36421875, 177.1655 21.25986, 177.16549999999998 21.25986, 141.73239999999998 0, 141.73239999999998 0, 106.29929999999999 21.25986, 106.29929999999999 21.25986, 70.86619999999999 0, 70.86619999999999 0, 35.433099999999996 21.25986, 35.433099999999996 "/> 
</g>
<!-- Right--> 
<g transform="translate(1244.9419685, 199.6655185) " > 
<polygon style="stroke:#000000; fill:none; stroke-width:0.90000074" points="21.25986, 0 55.36421875, 0 55.36421875, 21.25986 110.7284375, 21.25986 110.7284375, 0 146.1615375, 0 146.1615375, 21.25986 181.59463749999998, 21.25986 181.59463749999998, 0 217.0277375, 0 217.0277375, 21.25986 252.46083749999997, 21.25986 252.46083749999997, 0 287.8939375, 0 287.8939375, 21.25986 323.32703749999996, 21.25986 323.32703749999996, 0 358.7601375, 0 358.7601375, 21.25986 394.19323749999995, 21.25986 394.19323749999995, 0 429.6263374999999, 0 429.6263374999999, 21.25986 465.05943749999994, 21.25986 465.05943749999994, 0 500.49253749999997, 0 500.49253749999997, 21.25986 555.85675625, 21.25986 555.85675625, 0 589.961115, 0 589.961115, 35.433099999999996 611.220975, 35.433099999999996 611.220975, 70.86619999999999 589.961115, 70.86619999999999 589.961115, 106.29929999999999 611.220975, 106.29929999999999 611.220975, 141.73239999999998 589.961115, 141.73239999999998 589.961115, 177.1655 555.85675625, 177.1655 555.85675625, 155.90564 500.49253749999997, 155.90564 500.49253749999997, 177.1655 465.05943749999994, 177.1655 465.05943749999994, 155.90564 429.6263374999999, 155.90564 429.6263374999999, 177.1655 394.19323749999995, 177.1655 394.19323749999995, 155.90564 358.7601375, 155.90564 358.7601375, 177.1655 323.32703749999996, 177.1655 323.32703749999996, 155.90564 287.8939375, 155.90564 287.8939375, 177.1655 252.46083749999997, 177.1655 252.46083749999997, 155.90564 217.0277375, 155.90564 217.0277375, 177.1655 181.59463749999998, 177.1655 181.59463749999998, 155.90564 146.1615375, 155.90564 146.1615375, 177.1655 110.7284375, 177.1655 110.7284375, 155.90564 55.36421875, 155.90564 55.36421875, 177.1655 21.25986, 177.16549999999998 21.25986, 141.73239999999998 0, 141.73239999999998 0, 106.29929999999999 21.25986, 106.29929999999999 21.25986, 70.86619999999999 0, 70.86619999999999 0, 35.433099999999996 21.25986, 35.433099999999996 "/> 
</g>
<!-- Top--> 
<g transform="translate(22.5000185, 199.6655185) " > 
<polygon style="stroke:#000000; fill:none; stroke-width:0.90000074" points="21.25986, 21.25986 55.36421875, 21.25986 55.36421875, 0 110.7284375, 0 110.7284375, 21.25986 146.1615375, 21.25986 146.1615375, 0 181.59463749999998, 0 181.59463749999998, 21.25986 217.0277375, 21.25986 217.0277375, 0 252.46083749999997, 0 252.46083749999997, 21.25986 287.8939375, 21.25986 287.8939375, 0 323.32703749999996, 0 323.32703749999996, 21.25986 358.7601375, 21.25986 358.7601375, 0 394.19323749999995, 0 394.19323749999995, 21.25986 429.6263374999999, 21.25986 429.6263374999999, 0 465.05943749999994, 0 465.05943749999994, 21.25986 500.49253749999997, 21.25986 500.49253749999997, 0 555.85675625, 0 555.85675625, 21.25986 589.961115, 21.25986 589.961115, 55.36421875 611.220975, 55.36421875 611.220975, 110.7284375 589.961115, 110.7284375 589.961115, 146.1615375 611.220975, 146.1615375 611.220975, 181.59463749999998 589.961115, 181.59463749999998 589.961115, 217.0277375 611.220975, 217.0277375 611.220975, 252.46083749999997 589.961115, 252.46083749999997 589.961115, 287.8939375 611.220975, 287.8939375 611.220975, 323.32703749999996 589.961115, 323.32703749999996 589.961115, 358.7601375 611.220975, 358.7601375 611.220975, 394.19323749999995 589.961115, 394.19323749999995 589.961115, 429.6263374999999 611.220975, 429.6263374999999 611.220975, 465.05943749999994 589.961115, 465.05943749999994 589.961115, 500.49253749999997 611.220975, 500.49253749999997 611.220975, 555.85675625 589.961115, 555.85675625 589.961115, 589.961115 555.85675625, 589.961115 555.85675625, 611.220975 500.49253749999997, 611.220975 500.49253749999997, 589.961115 465.05943749999994, 589.961115 465.05943749999994, 611.220975 429.6263374999999, 611.220975 429.6263374999999, 589.961115 394.19323749999995, 589.961115 394.19323749999995, 611.220975 358.7601375, 611.220975 358.7601375, 589.961115 323.32703749999996, 589.961115 323.32703749999996, 611.220975 287.8939375, 611.220975 287.8939375, 589.961115 252.46083749999997, 589.961115 252.46083749999997, 611.220975 217.0277375, 611.220975 217.0277375, 589.961115 181.59463749999998, 589.961115 181.59463749999998, 611.220975 146.1615375, 611.220975 146.1615375, 589.961115 110.7284375, 589.961115 110.7284375, 611.220975 55.36421875, 611.220975 55.36421875, 589.961115 21.25986, 589.961115 21.25986, 555.85675625 0, 555.85675625 0, 500.49253749999997 21.25986, 500.49253749999997 21.25986, 465.05943749999994 0, 465.05943749999994 0, 429.6263374999999 21.25986, 429.6263374999999 21.25986, 394.19323749999995 0, 394.19323749999995 0, 358.7601375 21.25986, 358.7601375 21.25986, 323.32703749999996 0, 323.32703749999996 0, 287.8939375 21.25986, 287.8939375 21.25986, 252.46083749999997 0, 252.46083749999997 0, 217.0277375 21.25986, 217.0277375 21.25986, 181.59463749999998 0, 181.59463749999998 0, 146.1615375 21.25986, 146.1615375 21.25986, 110.7284375 0, 110.7284375 0, 55.36421875 21.25986, 55.36421875 "/> 
</g>
<!-- Bottom--> 
<g transform="translate(633.7209935, 199.6655185) " > 
<polygon style="stroke:#000000; fill:none; stroke-width:0.90000074" points="21.25986, 21.25986 55.36421875, 21.25986 55.36421875, 0 110.7284375, 0 110.7284375, 21.25986 146.1615375, 21.25986 146.1615375, 0 181.59463749999998, 0 181.59463749999998, 21.25986 217.0277375, 21.25986 217.0277375, 0 252.46083749999997, 0 252.46083749999997, 21.25986 287.8939375, 21.25986 287.8939375, 0 323.32703749999996, 0 323.32703749999996, 21.25986 358.7601375, 21.25986 358.7601375, 0 394.19323749999995, 0 394.19323749999995, 21.25986 429.6263374999999, 21.25986 429.6263374999999, 0 465.05943749999994, 0 465.05943749999994, 21.25986 500.49253749999997, 21.25986 500.49253749999997, 0 555.85675625, 0 555.85675625, 21.25986 589.961115, 21.25986 589.961115, 55.36421875 611.220975, 55.36421875 611.220975, 110.7284375 589.961115, 110.7284375 589.961115, 146.1615375 611.220975, 146.1615375 611.220975, 181.59463749999998 589.961115, 181.59463749999998 589.961115, 217.0277375 611.220975, 217.0277375 611.220975, 252.46083749999997 589.961115, 252.46083749999997 589.961115, 287.8939375 611.220975, 287.8939375 611.220975, 323.32703749999996 589.961115, 323.32703749999996 589.961115, 358.7601375 611.220975, 358.7601375 611.220975, 394.19323749999995 589.961115, 394.19323749999995 589.961115, 429.6263374999999 611.220975, 429.6263374999999 611.220975, 465.05943749999994 589.961115, 465.05943749999994 589.961115, 500.49253749999997 611.220975, 500.49253749999997 611.220975, 555.85675625 589.961115, 555.85675625 589.961115, 589.961115 555.85675625, 589.961115 555.85675625, 611.220975 500.49253749999997, 611.220975 500.49253749999997, 589.961115 465.05943749999994, 589.961115 465.05943749999994, 611.220975 429.6263374999999, 611.220975 429.6263374999999, 589.961115 394.19323749999995, 589.961115 394.19323749999995, 611.220975 358.7601375, 611.220975 358.7601375, 589.961115 323.32703749999996, 589.961115 323.32703749999996, 611.220975 287.8939375, 611.220975 287.8939375, 589.961115 252.46083749999997, 589.961115 252.46083749999997, 611.220975 217.0277375, 611.220975 217.0277375, 589.961115 181.59463749999998, 589.961115 181.59463749999998, 611.220975 146.1615375, 611.220975 146.1615375, 589.961115 110.7284375, 589.961115 110.7284375, 611.220975 55.36421875, 611.220975 55.36421875, 589.961115 21.25986, 589.961115 21.25986, 555.85675625 0, 555.85675625 0, 500.49253749999997 21.25986, 500.49253749999997 21.25986, 465.05943749999994 0, 465.05943749999994 0, 429.6263374999999 21.25986, 429.6263374999999 21.25986, 394.19323749999995 0, 394.19323749999995 0, 358.7601375 21.25986, 358.7601375 21.25986, 323.32703749999996 0, 323.32703749999996 0, 287.8939375 21.25986, 287.8939375 21.25986, 252.46083749999997 0, 252.46083749999997 0, 217.0277375 21.25986, 217.0277375 21.25986, 181.59463749999998 0, 181.59463749999998 0, 146.1615375 21.25986, 146.1615375 21.25986, 110.7284375 0, 110.7284375 0, 55.36421875 21.25986, 55.36421875 "/> 
</g></svg>