  0
SECTION
  2
HEADER
  9
$ACADVER
  1
AC1014
  9
$HANDSEED
  5
FFFF
  9
$MEASUREMENT
 70
     1
  0
ENDSEC
  0
SECTION
  2
TABLES
  0
TABLE
  2
VPORT
  5
8
330
0
100
AcDbSymbolTable
 70
     4
  0
VPORT
  5
2E
330
8
100
AcDbSymbolTableRecord
100
AcDbViewportTableRecord
  2
*ACTIVE
 70
     0
 10
0.0
 20
0.0
 11
1.0
 21
1.0
 12
210.0
 22
148.5
 13
0.0
 23
0.0
 14
10.0
 24
10.0
 15
10.0
 25
10.0
 16
0.0
 26
0.0
 36
1.0
 17
0.0
 27
0.0
 37
0.0
 40
341.0
 41
1.24
 42
50.0
 43
0.0
 44
0.0
 50
0.0
 51
0.0
 71
     0
 72
   100
 73
     1
 74
     3
 75
     0
 76
     0
 77
     0
 78
     0
  0
ENDTAB
  0
TABLE
  2
LTYPE
  5
5
330
0
100
AcDbSymbolTable
 70
     1
  0
LTYPE
  5
14
330
5
100
AcDbSymbolTableRecord
100
AcDbLinetypeTableRecord
  2
BYBLOCK
 70
     0
  3

 72
    65
 73
     0
 40
0.0
  0
LTYPE
  5
15
330
5
100
AcDbSymbolTableRecord
100
AcDbLinetypeTableRecord
  2
BYLAYER
 70
     0
  3

 72
    65
 73
     0
 40
0.0
  0
LTYPE
  5
16
330
5
100
AcDbSymbolTableRecord
100
AcDbLinetypeTableRecord
  2
CONTINUOUS
 70
     0
  3
Solid line
 72
    65
 73
     0
 40
0.0
  0
ENDTAB
  0
TABLE
  2
LAYER
  5
2
100
AcDbSymbolTable
 70
2
  0
LAYER
  5
50
100
AcDbSymbolTableRecord
100
AcDbLayerTableRecord
  2
0
 70
0
  6
CONTINUOUS
  0
LAYER
  5
51
100
AcDbSymbolTableRecord
100
AcDbLayerTableRecord
  2
Layer_1
 70
0
  6
CONTINUOUS
  0
ENDTAB
  0
TABLE
  2
STYLE
  5
3
330
0
100
AcDbSymbolTable
 70
     1
  0
STYLE
  5
11
330
3
100
AcDbSymbolTableRecord
100
AcDbTextStyleTableRecord
  2
STANDARD
 70
     0
 40
0.0
 41
1.0
 50
0.0
 71
     0
 42
2.5
  3
txt
  4

  0
ENDTAB
  0
TABLE
  2
VIEW
  5
6
330
0
100
AcDbSymbolTable
 70
     0
  0
ENDTAB
  0
TABLE
  2
UCS
  5
7
330
0
100
AcDbSymbolTable
 70
     0
  0
ENDTAB
  0
TABLE
  2
APPID
  5
9
330
0
100
AcDbSymbolTable
 70
     2
  0
APPID
  5
12
330
9
100
AcDbSymbolTableRecord
100
AcDbRegAppTableRecord
  2
ACAD
 70
     0
  0
ENDTAB
  0
TABLE
  2
DIMSTYLE
  5
A
330
0
100
AcDbSymbolTable
 70
     1
  0
DIMSTYLE
105
27
330
A
100
AcDbSymbolTableRecord
100
AcDbDimStyleTableRecord
  2
ISO-25
 70
     0
  3

  4

  5

  6

  7

 40
1.0
 41
2.5
 42
0.625
 43
3.75
 44
1.25
 45
0.0
 46
0.0
 47
0.0
 48
0.0
140
2.5
141
2.5
142
0.0
143
0.03937007874016
144
1.0
145
0.0
146
1.0
147
0.625
 71
     0
 72
     0
 73
     0
 74
     0
 75
     0
 76
     0
 77
     1
 78
     8
170
     0
171
     3
172
     1
173
     0
174
     0
175
     0
176
     0
177
     0
178
     0
270
     2
271
     2
272
     2
273
     2
274
     3
340
11
275
     0
280
     0
281
     0
282
     0
283
     0
284
     8
285
     0
286
     0
287
     3
288
     0
  0
ENDTAB
  0
TABLE
  2
BLOCK_RECORD
  5
1
330
0
100
AcDbSymbolTable
 70
     1
  0
BLOCK_RECORD
  5
1F
330
1
100
AcDbSymbolTableRecord
100
AcDbBlockTableRecord
  2
*MODEL_SPACE
  0
BLOCK_RECORD
  5
1B
330
1
100
AcDbSymbolTableRecord
100
AcDbBlockTableRecord
  2
*PAPER_SPACE
  0
ENDTAB
  0
ENDSEC
  0
SECTION
  2
BLOCKS
  0
BLOCK
  5
20
330
1F
100
AcDbEntity
  8
0
100
AcDbBlockBegin
  2
*MODEL_SPACE
 70
     0
 10
0.0
 20
0.0
 30
0.0
  3
*MODEL_SPACE
  1

  0
ENDBLK
  5
21
330
1F
100
AcDbEntity
  8
0
100
AcDbBlockEnd
  0
BLOCK
  5
1C
330
1B
100
AcDbEntity
 67
     1
  8
0
100
AcDbBlockBegin
  2
*PAPER_SPACE
  1

  0
ENDBLK
  5
1D
330
1B
100
AcDbEntity
 67
     1
  8
0
100
AcDbBlockEnd
  0
ENDSEC
  0
SECTION
  2
ENTITIES
  0
LWPOLYLINE
  5
100
100
AcDbEntity
  8
Layer_1
 62
7
100
AcDbPolyline
 90
77
 70
1
 10
203.414105
 20
-4.413407
 30
0.0
 10
213.414113
 20
-4.413407
 30
0.0
 10
213.414113
 20
1.586598
 30
0.0
 10
223.414122
 20
1.586598
 30
0.0
 10
223.414122
 20
-4.413407
 30
0.0
 10
233.414130
 20
-4.413407
 30
0.0
 10
233.414130
 20
1.586598
 30
0.0
 10
243.414138
 20
1.586598
 30
0.0
 10
243.414138
 20
-4.413407
 30
0.0
 10
253.414146
 20
-4.413407
 30
0.0
 10
253.414146
 20
1.586598
 30
0.0
 10
263.414154
 20
1.586598
 30
0.0
 10
263.414154
 20
-4.413407
 30
0.0
 10
273.414163
 20
-4.413407
 30
0.0
 10
273.414163
 20
1.586598
 30
0.0
 10
283.414171
 20
1.586598
 30
0.0
 10
283.414171
 20
-4.413407
 30
0.0
 10
293.414179
 20
-4.413407
 30
0.0
 10
293.414179
 20
1.586598
 30
0.0
 10
303.414187
 20
1.586598
 30
0.0
 10
303.414187
 20
-4.413407
 30
0.0
 10
319.039200
 20
-4.413407
 30
0.0
 10
319.039200
 20
1.586598
 30
0.0
 10
334.664211
 20
1.586598
 30
0.0
 10
334.664211
 20
-8.413410
 30
0.0
 10
328.664206
 20
-8.413410
 30
0.0
 10
328.664206
 20
-18.413418
 30
0.0
 10
334.664211
 20
-18.413418
 30
0.0
 10
334.664211
 20
-28.413426
 30
0.0
 10
328.664206
 20
-28.413426
 30
0.0
 10
328.664206
 20
-38.413435
 30
0.0
 10
334.664211
 20
-38.413435
 30
0.0
 10
334.664211
 20
-48.413443
 30
0.0
 10
319.039200
 20
-48.413443
 30
0.0
 10
319.039200
 20
-42.413438
 30
0.0
 10
303.414187
 20
-42.413438
 30
0.0
 10
303.414187
 20
-48.413443
 30
0.0
 10
293.414179
 20
-48.413443
 30
0.0
 10
293.414179
 20
-42.413438
 30
0.0
 10
283.414171
 20
-42.413438
 30
0.0
 10
283.414171
 20
-48.413443
 30
0.0
 10
273.414163
 20
-48.413443
 30
0.0
 10
273.414163
 20
-42.413438
 30
0.0
 10
263.414154
 20
-42.413438
 30
0.0
 10
263.414154
 20
-48.413443
 30
0.0
 10
253.414146
 20
-48.413443
 30
0.0
 10
253.414146
 20
-42.413438
 30
0.0
 10
243.414138
 20
-42.413438
 30
0.0
 10
243.414138
 20
-48.413443
 30
0.0
 10
233.414130
 20
-48.413443
 30
0.0
 10
233.414130
 20
-42.413438
 30
0.0
 10
223.414122
 20
-42.413438
 30
0.0
 10
223.414122
 20
-48.413443
 30
0.0
 10
213.414113
 20
-48.413443
 30
0.0
 10
213.414113
 20
-42.413438
 30
0.0
 10
203.414105
 20
-42.413438
 30
0.0
 10
203.414105
 20
-48.413443
 30
0.0
 10
193.414097
 20
-48.413443
 30
0.0
 10
193.414097
 20
-42.413438
 30
0.0
 10
177.789083
 20
-42.413438
 30
0.0
 10
177.789083
 20
-48.413443
 30
0.0
 10
162.164070
 20
-48.413443
 30
0.0
 10
162.164070
 20
-38.413435
 30
0.0
 10
168.164075
 20
-38.413435
 30
0.0
 10
168.164075
 20
-28.413426
 30
0.0
 10
162.164070
 20
-28.413426
 30
0.0
 10
162.164070
 20
-18.413418
 30
0.0
 10
168.164075
 20
-18.413418
 30
0.0
 10
168.164075
 20
-8.413410
 30
0.0
 10
162.164070
 20
-8.413410
 30
0.0
 10
162.164070
 20
1.586598
 30
0.0
 10
177.789083
 20
1.586598
 30
0.0
 10
177.789083
 20
-4.413407
 30
0.0
 10
193.414097
 20
-4.413407
 30
0.0
 10
193.414097
 20
1.586598
 30
0.0
 10
203.414105
 20
1.586598
 30
0.0
 10
203.414105
 20
-4.413407
 30
0.0
  0
LWPOLYLINE
  5
101
100
AcDbEntity
  8
Layer_1
 62
7
100
AcDbPolyline
 90
77
 70
1
 10
375.914254
 20
-4.413407
 30
0.0
 10
385.914262
 20
-4.413407
 30
0.0
 10
385.914262
 20
1.586598
 30
0.0
 10
395.914270
 20
1.586598
 30
0.0
 10
395.914270
 20
-4.413407
 30
0.0
 10
405.914279
 20
-4.413407
 30
0.0
 10
405.914279
 20
1.586598
 30
0.0
 10
415.914287
 20
1.586598
 30
0.0
 10
415.914287
 20
-4.413407
 30
0.0
 10
425.914295
 20
-4.413407
 30
0.0
 10
425.914295
 20
1.586598
 30
0.0
 10
435.914303
 20
1.586598
 30
0.0
 10
435.914303
 20
-4.413407
 30
0.0
 10
445.914312
 20
-4.413407
 30
0.0
 10
445.914312
 20
1.586598
 30
0.0
 10
455.914320
 20
1.586598
 30
0.0
 10
455.914320
 20
-4.413407
 30
0.0
 10
465.914328
 20
-4.413407
 30
0.0
 10
465.914328
 20
1.586598
 30
0.0
 10
475.914336
 20
1.586598
 30
0.0
 10
475.914336
 20
-4.413407
 30
0.0
 10
491.539349
 20
-4.413407
 30
0.0
 10
491.539349
 20
1.586598
 30
0.0
 10
507.164360
 20
1.586598
 30
0.0
 10
507.164360
 20
-8.413410
 30
0.0
 10
501.164355
 20
-8.413410
 30
0.0
 10
501.164355
 20
-18.413418
 30
0.0
 10
507.164360
 20
-18.413418
 30
0.0
 10
507.164360
 20
-28.413426
 30
0.0
 10
501.164355
 20
-28.413426
 30
0.0
 10
501.164355
 20
-38.413435
 30
0.0
 10
507.164360
 20
-38.413435
 30
0.0
 10
507.164360
 20
-48.413443
 30
0.0
 10
491.539349
 20
-48.413443
 30
0.0
 10
491.539349
 20
-42.413438
 30
0.0
 10
475.914336
 20
-42.413438
 30
0.0
 10
475.914336
 20
-48.413443
 30
0.0
 10
465.914328
 20
-48.413443
 30
0.0
 10
465.914328
 20
-42.413438
 30
0.0
 10
455.914320
 20
-42.413438
 30
0.0
 10
455.914320
 20
-48.413443
 30
0.0
 10
445.914312
 20
-48.413443
 30
0.0
 10
445.914312
 20
-42.413438
 30
0.0
 10
435.914303
 20
-42.413438
 30
0.0
 10
435.914303
 20
-48.413443
 30
0.0
 10
425.914295
 20
-48.413443
 30
0.0
 10
425.914295
 20
-42.413438
 30
0.0
 10
415.914287
 20
-42.413438
 30
0.0
 10
415.914287
 20
-48.413443
 30
0.0
 10
405.914279
 20
-48.413443
 30
0.0
 10
405.914279
 20
-42.413438
 30
0.0
 10
395.914270
 20
-42.413438
 30
0.0
 10
395.914270
 20
-48.413443
 30
0.0
 10
385.914262
 20
-48.413443
 30
0.0
 10
385.914262
 20
-42.413438
 30
0.0
 10
375.914254
 20
-42.413438
 30
0.0
 10
375.914254
 20
-48.413443
 30
0.0
 10
365.914246
 20
-48.413443
 30
0.0
 10
365.914246
 20
-42.413438
 30
0.0
 10
350.289232
 20
-42.413438
 30
0.0
 10
350.289232
 20
-48.413443
 30
0.0
 10
334.664219
 20
-48.413443
 30
0.0
 10
334.664219
 20
-38.413435
 30
0.0
 10
340.664224
 20
-38.413435
 30
0.0
 10
340.664224
 20
-28.413426
 30
0.0
 10
334.664219
 20
-28.413426
 30
0.0
 10
334.664219
 20
-18.413418
 30
0.0
 10
340.664224
 20
-18.413418
 30
0.0
 10
340.664224
 20
-8.413410
 30
0.0
 10
334.664219
 20
-8.413410
 30
0.0
 10
334.664219
 20
1.586598
 30
0.0
 10
350.289232
 20
1.586598
 30
0.0
 10
350.289232
 20
-4.413407
 30
0.0
 10
365.914246
 20
-4.413407
 30
0.0
 10
365.914246
 20
1.586598
 30
0.0
 10
375.914254
 20
1.586598
 30
0.0
 10
375.914254
 20
-4.413407
 30
0.0
  0
LWPOLYLINE
  5
102
100
AcDbEntity
  8
Layer_1
 62
7
100
AcDbPolyline
 90
77
 70
1
 10
548.414403
 20
-4.413407
 30
0.0
 10
558.414411
 20
-4.413407
 30
0.0
 10
558.414411
 20
1.586598
 30
0.0
 10
568.414419
 20
1.586598
 30
0.0
 10
568.414419
 20
-4.413407
 30
0.0
 10
578.414428
 20
-4.413407
 30
0.0
 10
578.414428
 20
1.586598
 30
0.0
 10
588.414436
 20
1.586598
 30
0.0
 10
588.414436
 20
-4.413407
 30
0.0
 10
598.414444
 20
-4.413407
 30
0.0
 10
598.414444
 20
1.586598
 30
0.0
 10
608.414452
 20
1.586598
 30
0.0
 10
608.414452
 20
-4.413407
 30
0.0
 10
618.414460
 20
-4.413407
 30
0.0
 10
618.414460
 20
1.586598
 30
0.0
 10
628.414469
 20
1.586598
 30
0.0
 10
628.414469
 20
-4.413407
 30
0.0
 10
638.414477
 20
-4.413407
 30
0.0
 10
638.414477
 20
1.586598
 30
0.0
 10
648.414485
 20
1.586598
 30
0.0
 10
648.414485
 20
-4.413407
 30
0.0
 10
664.039498
 20
-4.413407
 30
0.0
 10
664.039498
 20
1.586598
 30
0.0
 10
673.664504
 20
1.586598
 30
0.0
 10
673.664504
 20
-8.413410
 30
0.0
 10
679.664509
 20
-8.413410
 30
0.0
 10
679.664509
 20
-18.413418
 30
0.0
 10
673.664504
 20
-18.413418
 30
0.0
 10
673.664504
 20
-28.413426
 30
0.0
 10
679.664509
 20
-28.413426
 30
0.0
 10
679.664509
 20
-38.413435
 30
0.0
 10
673.664504
 20
-38.413435
 30
0.0
 10
673.664504
 20
-48.413443
 30
0.0
 10
664.039498
 20
-48.413443
 30
0.0
 10
664.039498
 20
-42.413438
 30
0.0
 10
648.414485
 20
-42.413438
 30
0.0
 10
648.414485
 20
-48.413443
 30
0.0
 10
638.414477
 20
-48.413443
 30
0.0
 10
638.414477
 20
-42.413438
 30
0.0
 10
628.414469
 20
-42.413438
 30
0.0
 10
628.414469
 20
-48.413443
 30
0.0
 10
618.414460
 20
-48.413443
 30
0.0
 10
618.414460
 20
-42.413438
 30
0.0
 10
608.414452
 20
-42.413438
 30
0.0
 10
608.414452
 20
-48.413443
 30
0.0
 10
598.414444
 20
-48.413443
 30
0.0
 10
598.414444
 20
-42.413438
 30
0.0
 10
588.414436
 20
-42.413438
 30
0.0
 10
588.414436
 20
-48.413443
 30
0.0
 10
578.414428
 20
-48.413443
 30
0.0
 10
578.414428
 20
-42.413438
 30
0.0
 10
568.414419
 20
-42.413438
 30
0.0
 10
568.414419
 20
-48.413443
 30
0.0
 10
558.414411
 20
-48.413443
 30
0.0
 10
558.414411
 20
-42.413438
 30
0.0
 10
548.414403
 20
-42.413438
 30
0.0
 10
548.414403
 20
-48.413443
 30
0.0
 10
538.414395
 20
-48.413443
 30
0.0
 10
538.414395
 20
-42.413438
 30
0.0
 10
522.789381
 20
-42.413438
 30
0.0
 10
522.789381
 20
-48.413443
 30
0.0
 10
513.164373
 20
-48.413443
 30
0.0
 10
513.164373
 20
-38.413435
 30
0.0
 10
507.164368
 20
-38.413435
 30
0.0
 10
507.164368
 20
-28.413426
 30
0.0
 10
513.164373
 20
-28.413426
 30
0.0
 10
513.164373
 20
-18.413418
 30
0.0
 10
507.164368
 20
-18.413418
 30
0.0
 10
507.164368
 20
-8.413410
 30
0.0
 10
513.164373
 20
-8.413410
 30
0.0
 10
513.164373
 20
1.586598
 30
0.0
 10
522.789381
 20
1.586598
 30
0.0
 10
522.789381
 20
-4.413407
 30
0.0
 10
538.414395
 20
-4.413407
 30
0.0
 10
538.414395
 20
1.586598
 30
0.0
 10
548.414403
 20
1.586598
 30
0.0
 10
548.414403
 20
-4.413407
 30
0.0
  0
LWPOLYLINE
  5
103
100
AcDbEntity
  8
Layer_1
 62
7
100
AcDbPolyline
 90
77
 70
1
 10
548.414403
 20
-54.413448
 30
0.0
 10
558.414411
 20
-54.413448
 30
0.0
 10
558.414411
 20
-48.413443
 30
0.0
 10
568.414419
 20
-48.413443
 30
0.0
 10
568.414419
 20
-54.413448
 30
0.0
 10
578.414428
 20
-54.413448
 30
0.0
 10
578.414428
 20
-48.413443
 30
0.0
 10
588.414436
 20
-48.413443
 30
0.0
 10
588.414436
 20
-54.413448
 30
0.0
 10
598.414444
 20
-54.413448
 30
0.0
 10
598.414444
 20
-48.413443
 30
0.0
 10
608.414452
 20
-48.413443
 30
0.0
 10
608.414452
 20
-54.413448
 30
0.0
 10
618.414460
 20
-54.413448
 30
0.0
 10
618.414460
 20
-48.413443
 30
0.0
 10
628.414469
 20
-48.413443
 30
0.0
 10
628.414469
 20
-54.413448
 30
0.0
 10
638.414477
 20
-54.413448
 30
0.0
 10
638.414477
 20
-48.413443
 30
0.0
 10
648.414485
 20
-48.413443
 30
0.0
 10
648.414485
 20
-54.413448
 30
0.0
 10
664.039498
 20
-54.413448
 30
0.0
 10
664.039498
 20
-48.413443
 30
0.0
 10
673.664504
 20
-48.413443
 30
0.0
 10
673.664504
 20
-58.413451
 30
0.0
 10
679.664509
 20
-58.413451
 30
0.0
 10
679.664509
 20
-68.413459
 30
0.0
 10
673.664504
 20
-68.413459
 30
0.0
 10
673.664504
 20
-78.413468
 30
0.0
 10
679.664509
 20
-78.413468
 30
0.0
 10
679.664509
 20
-88.413476
 30
0.0
 10
673.664504
 20
-88.413476
 30
0.0
 10
673.664504
 20
-98.413484
 30
0.0
 10
664.039498
 20
-98.413484
 30
0.0
 10
664.039498
 20
-92.413479
 30
0.0
 10
648.414485
 20
-92.413479
 30
0.0
 10
648.414485
 20
-98.413484
 30
0.0
 10
638.414477
 20
-98.413484
 30
0.0
 10
638.414477
 20
-92.413479
 30
0.0
 10
628.414469
 20
-92.413479
 30
0.0
 10
628.414469
 20
-98.413484
 30
0.0
 10
618.414460
 20
-98.413484
 30
0.0
 10
618.414460
 20
-92.413479
 30
0.0
 10
608.414452
 20
-92.413479
 30
0.0
 10
608.414452
 20
-98.413484
 30
0.0
 10
598.414444
 20
-98.413484
 30
0.0
 10
598.414444
 20
-92.413479
 30
0.0
 10
588.414436
 20
-92.413479
 30
0.0
 10
588.414436
 20
-98.413484
 30
0.0
 10
578.414428
 20
-98.413484
 30
0.0
 10
578.414428
 20
-92.413479
 30
0.0
 10
568.414419
 20
-92.413479
 30
0.0
 10
568.414419
 20
-98.413484
 30
0.0
 10
558.414411
 20
-98.413484
 30
0.0
 10
558.414411
 20
-92.413479
 30
0.0
 10
548.414403
 20
-92.413479
 30
0.0
 10
548.414403
 20
-98.413484
 30
0.0
 10
538.414395
 20
-98.413484
 30
0.0
 10
538.414395
 20
-92.413479
 30
0.0
 10
522.789381
 20
-92.413479
 30
0.0
 10
522.789381
 20
-98.413484
 30
0.0
 10
513.164373
 20
-98.413484
 30
0.0
 10
513.164373
 20
-88.413476
 30
0.0
 10
507.164368
 20
-88.413476
 30
0.0
 10
507.164368
 20
-78.413468
 30
0.0
 10
513.164373
 20
-78.413468
 30
0.0
 10
513.164373
 20
-68.413459
 30
0.0
 10
507.164368
 20
-68.413459
 30
0.0
 10
507.164368
 20
-58.413451
 30
0.0
 10
513.164373
 20
-58.413451
 30
0.0
 10
513.164373
 20
-48.413443
 30
0.0
 10
522.789381
 20
-48.413443
 30
0.0
 10
522.789381
 20
-54.413448
 30
0.0
 10
538.414395
 20
-54.413448
 30
0.0
 10
538.414395
 20
-48.413443
 30
0.0
 10
548.414403
 20
-48.413443
 30
0.0
 10
548.414403
 20
-54.413448
 30
0.0
  0
LWPOLYLINE
  5
104
100
AcDbEntity
  8
Layer_1
 62
7
100
AcDbPolyline
 90
117
 70
1
 10
203.414105
 20
-48.413443
 30
0.0
 10
213.414113
 20
-48.413443
 30
0.0
 10
213.414113
 20
-54.413448
 30
0.0
 10
223.414122
 20
-54.413448
 30
0.0
 10
223.414122
 20
-48.413443
 30
0.0
 10
233.414130
 20
-48.413443
 30
0.0
 10
233.414130
 20
-54.413448
 30
0.0
 10
243.414138
 20
-54.413448
 30
0.0
 10
243.414138
 20
-48.413443
 30
0.0
 10
253.414146
 20
-48.413443
 30
0.0
 10
253.414146
 20
-54.413448
 30
0.0
 10
263.414154
 20
-54.413448
 30
0.0
 10
263.414154
 20
-48.413443
 30
0.0
 10
273.414163
 20
-48.413443
 30
0.0
 10
273.414163
 20
-54.413448
 30
0.0
 10
283.414171
 20
-54.413448
 30
0.0
 10
283.414171
 20
-48.413443
 30
0.0
 10
293.414179
 20
-48.413443
 30
0.0
 10
293.414179
 20
-54.413448
 30
0.0
 10
303.414187
 20
-54.413448
 30
0.0
 10
303.414187
 20
-48.413443
 30
0.0
 10
319.039200
 20
-48.413443
 30
0.0
 10
319.039200
 20
-54.413448
 30
0.0
 10
328.664206
 20
-54.413448
 30
0.0
 10
328.664206
 20
-64.038456
 30
0.0
 10
334.664211
 20
-64.038456
 30
0.0
 10
334.664211
 20
-79.663469
 30
0.0
 10
328.664206
 20
-79.663469
 30
0.0
 10
328.664206
 20
-89.663478
 30
0.0
 10
334.664211
 20
-89.663478
 30
0.0
 10
334.664211
 20
-99.663486
 30
0.0
 10
328.664206
 20
-99.663486
 30
0.0
 10
328.664206
 20
-109.663494
 30
0.0
 10
334.664211
 20
-109.663494
 30
0.0
 10
334.664211
 20
-119.663502
 30
0.0
 10
328.664206
 20
-119.663502
 30
0.0
 10
328.664206
 20
-129.663510
 30
0.0
 10
334.664211
 20
-129.663510
 30
0.0
 10
334.664211
 20
-139.663519
 30
0.0
 10
328.664206
 20
-139.663519
 30
0.0
 10
328.664206
 20
-149.663527
 30
0.0
 10
334.664211
 20
-149.663527
 30
0.0
 10
334.664211
 20
-159.663535
 30
0.0
 10
328.664206
 20
-159.663535
 30
0.0
 10
328.664206
 20
-169.663543
 30
0.0
 10
334.664211
 20
-169.663543
 30
0.0
 10
334.664211
 20
-179.663552
 30
0.0
 10
328.664206
 20
-179.663552
 30
0.0
 10
328.664206
 20
-189.663560
 30
0.0
 10
334.664211
 20
-189.663560
 30
0.0
 10
334.664211
 20
-205.288573
 30
0.0
 10
328.664206
 20
-205.288573
 30
0.0
 10
328.664206
 20
-214.913578
 30
0.0
 10
319.039200
 20
-214.913578
 30
0.0
 10
319.039200
 20
-220.913583
 30
0.0
 10
303.414187
 20
-220.913583
 30
0.0
 10
303.414187
 20
-214.913578
 30
0.0
 10
293.414179
 20
-214.913578
 30
0.0
 10
293.414179
 20
-220.913583
 30
0.0
 10
283.414171
 20
-220.913583
 30
0.0
 10
283.414171
 20
-214.913578
 30
0.0
 10
273.414163
 20
-214.913578
 30
0.0
 10
273.414163
 20
-220.913583
 30
0.0
 10
263.414154
 20
-220.913583
 30
0.0
 10
263.414154
 20
-214.913578
 30
0.0
 10
253.414146
 20
-214.913578
 30
0.0
 10
253.414146
 20
-220.913583
 30
0.0
 10
243.414138
 20
-220.913583
 30
0.0
 10
243.414138
 20
-214.913578
 30
0.0
 10
233.414130
 20
-214.913578
 30
0.0
 10
233.414130
 20
-220.913583
 30
0.0
 10
223.414122
 20
-220.913583
 30
0.0
 10
223.414122
 20
-214.913578
 30
0.0
 10
213.414113
 20
-214.913578
 30
0.0
 10
213.414113
 20
-220.913583
 30
0.0
 10
203.414105
 20
-220.913583
 30
0.0
 10
203.414105
 20
-214.913578
 30
0.0
 10
193.414097
 20
-214.913578
 30
0.0
 10
193.414097
 20
-220.913583
 30
0.0
 10
177.789083
 20
-220.913583
 30
0.0
 10
177.789083
 20
-214.913578
 30
0.0
 10
168.164075
 20
-214.913578
 30
0.0
 10
168.164075
 20
-205.288573
 30
0.0
 10
162.164070
 20
-205.288573
 30
0.0
 10
162.164070
 20
-189.663560
 30
0.0
 10
168.164075
 20
-189.663560
 30
0.0
 10
168.164075
 20
-179.663552
 30
0.0
 10
162.164070
 20
-179.663552
 30
0.0
 10
162.164070
 20
-169.663543
 30
0.0
 10
168.164075
 20
-169.663543
 30
0.0
 10
168.164075
 20
-159.663535
 30
0.0
 10
162.164070
 20
-159.663535
 30
0.0
 10
162.164070
 20
-149.663527
 30
0.0
 10
168.164075
 20
-149.663527
 30
0.0
 10
168.164075
 20
-139.663519
 30
0.0
 10
162.164070
 20
-139.663519
 30
0.0
 10
162.164070
 20
-129.663510
 30
0.0
 10
168.164075
 20
-129.663510
 30
0.0
 10
168.164075
 20
-119.663502
 30
0.0
 10
162.164070
 20
-119.663502
 30
0.0
 10
162.164070
 20
-109.663494
 30
0.0
 10
168.164075
 20
-109.663494
 30
0.0
 10
168.164075
 20
-99.663486
 30
0.0
 10
162.164070
 20
-99.663486
 30
0.0
 10
162.164070
 20
-89.663478
 30
0.0
 10
168.164075
 20
-89.663478
 30
0.0
 10
168.164075
 20
-79.663469
 30
0.0
 10
162.164070
 20
-79.663469
 30
0.0
 10
162.164070
 20
-64.038456
 30
0.0
 10
168.164075
 20
-64.038456
 30
0.0
 10
168.164075
 20
-54.413448
 30
0.0
 10
177.789083
 20
-54.413448
 30
0.0
 10
177.789083
 20
-48.413443
 30
0.0
 10
193.414097
 20
-48.413443
 30
0.0
 10
193.414097
 20
-54.413448
 30
0.0
 10
203.414105
 20
-54.413448
 30
0.0
 10
203.414105
 20
-48.413443
 30
0.0
  0
LWPOLYLINE
  5
105
100
AcDbEntity
  8
Layer_1
 62
7
100
AcDbPolyline
 90
117
 70
1
 10
375.914254
 20
-48.413443
 30
0.0
 10
385.914262
 20
-48.413443
 30
0.0
 10
385.914262
 20
-54.413448
 30
0.0
 10
395.914270
 20
-54.413448
 30
0.0
 10
395.914270
 20
-48.413443
 30
0.0
 10
405.914279
 20
-48.413443
 30
0.0
 10
405.914279
 20
-54.413448
 30
0.0
 10
415.914287
 20
-54.413448
 30
0.0
 10
415.914287
 20
-48.413443
 30
0.0
 10
425.914295
 20
-48.413443
 30
0.0
 10
425.914295
 20
-54.413448
 30
0.0
 10
435.914303
 20
-54.413448
 30
0.0
 10
435.914303
 20
-48.413443
 30
0.0
 10
445.914312
 20
-48.413443
 30
0.0
 10
445.914312
 20
-54.413448
 30
0.0
 10
455.914320
 20
-54.413448
 30
0.0
 10
455.914320
 20
-48.413443
 30
0.0
 10
465.914328
 20
-48.413443
 30
0.0
 10
465.914328
 20
-54.413448
 30
0.0
 10
475.914336
 20
-54.413448
 30
0.0
 10
475.914336
 20
-48.413443
 30
0.0
 10
491.539349
 20
-48.413443
 30
0.0
 10
491.539349
 20
-54.413448
 30
0.0
 10
501.164355
 20
-54.413448
 30
0.0
 10
501.164355
 20
-64.038456
 30
0.0
 10
507.164360
 20
-64.038456
 30
0.0
 10
507.164360
 20
-79.663469
 30
0.0
 10
501.164355
 20
-79.663469
 30
0.0
 10
501.164355
 20
-89.663478
 30
0.0
 10
507.164360
 20
-89.663478
 30
0.0
 10
507.164360
 20
-99.663486
 30
0.0
 10
501.164355
 20
-99.663486
 30
0.0
 10
501.164355
 20
-109.663494
 30
0.0
 10
507.164360
 20
-109.663494
 30
0.0
 10
507.164360
 20
-119.663502
 30
0.0
 10
501.164355
 20
-119.663502
 30
0.0
 10
501.164355
 20
-129.663510
 30
0.0
 10
507.164360
 20
-129.663510
 30
0.0
 10
507.164360
 20
-139.663519
 30
0.0
 10
501.164355
 20
-139.663519
 30
0.0
 10
501.164355
 20
-149.663527
 30
0.0
 10
507.164360
 20
-149.663527
 30
0.0
 10
507.164360
 20
-159.663535
 30
0.0
 10
501.164355
 20
-159.663535
 30
0.0
 10
501.164355
 20
-169.663543
 30
0.0
 10
507.164360
 20
-169.663543
 30
0.0
 10
507.164360
 20
-179.663552
 30
0.0
 10
501.164355
 20
-179.663552
 30
0.0
 10
501.164355
 20
-189.663560
 30
0.0
 10
507.164360
 20
-189.663560
 30
0.0
 10
507.164360
 20
-205.288573
 30
0.0
 10
501.164355
 20
-205.288573
 30
0.0
 10
501.164355
 20
-214.913578
 30
0.0
 10
491.539349
 20
-214.913578
 30
0.0
 10
491.539349
 20
-220.913583
 30
0.0
 10
475.914336
 20
-220.913583
 30
0.0
 10
475.914336
 20
-214.913578
 30
0.0
 10
465.914328
 20
-214.913578
 30
0.0
 10
465.914328
 20
-220.913583
 30
0.0
 10
455.914320
 20
-220.913583
 30
0.0
 10
455.914320
 20
-214.913578
 30
0.0
 10
445.914312
 20
-214.913578
 30
0.0
 10
445.914312
 20
-220.913583
 30
0.0
 10
435.914303
 20
-220.913583
 30
0.0
 10
435.914303
 20
-214.913578
 30
0.0
 10
425.914295
 20
-214.913578
 30
0.0
 10
425.914295
 20
-220.913583
 30
0.0
 10
415.914287
 20
-220.913583
 30
0.0
 10
415.914287
 20
-214.913578
 30
0.0
 10
405.914279
 20
-214.913578
 30
0.0
 10
405.914279
 20
-220.913583
 30
0.0
 10
395.914270
 20
-220.913583
 30
0.0
 10
395.914270
 20
-214.913578
 30
0.0
 10
385.914262
 20
-214.913578
 30
0.0
 10
385.914262
 20
-220.913583
 30
0.0
 10
375.914254
 20
-220.913583
 30
0.0
 10
375.914254
 20
-214.913578
 30
0.0
 10
365.914246
 20
-214.913578
 30
0.0
 10
365.914246
 20
-220.913583
 30
0.0
 10
350.289232
 20
-220.913583
 30
0.0
 10
350.289232
 20
-214.913578
 30
0.0
 10
340.664224
 20
-214.913578
 30
0.0
 10
340.664224
 20
-205.288573
 30
0.0
 10
334.664219
 20
-205.288573
 30
0.0
 10
334.664219
 20
-189.663560
 30
0.0
 10
340.664224
 20
-189.663560
 30
0.0
 10
340.664224
 20
-179.663552
 30
0.0
 10
334.664219
 20
-179.663552
 30
0.0
 10
334.664219
 20
-169.663543
 30
0.0
 10
340.664224
 20
-169.663543
 30
0.0
 10
340.664224
 20
-159.663535
 30
0.0
 10
334.664219
 20
-159.663535
 30
0.0
 10
334.664219
 20
-149.663527
 30
0.0
 10
340.664224
 20
-149.663527
 30
0.0
 10
340.664224
 20
-139.663519
 30
0.0
 10
334.664219
 20
-139.663519
 30
0.0
 10
334.664219
 20
-129.663510
 30
0.0
 10
340.664224
 20
-129.663510
 30
0.0
 10
340.664224
 20
-119.663502
 30
0.0
 10
334.664219
 20
-119.663502
 30
0.0
 10
334.664219
 20
-109.663494
 30
0.0
 10
340.664224
 20
-109.663494
 30
0.0
 10
340.664224
 20
-99.663486
 30
0.0
 10
334.664219
 20
-99.663486
 30
0.0
 10
334.664219
 20
-89.663478
 30
0.0
 10
340.664224
 20
-89.663478
 30
0.0
 10
340.664224
 20
-79.663469
 30
0.0
 10
334.664219
 20
-79.663469
 30
0.0
 10
334.664219
 20
-64.038456
 30
0.0
 10
340.664224
 20
-64.038456
 30
0.0
 10
340.664224
 20
-54.413448
 30
0.0
 10
350.289232
 20
-54.413448
 30
0.0
 10
350.289232
 20
-48.413443
 30
0.0
 10
365.914246
 20
-48.413443
 30
0.0
 10
365.914246
 20
-54.413448
 30
0.0
 10
375.914254
 20
-54.413448
 30
0.0
 10
375.914254
 20
-48.413443
 30
0.0
  0
ENDSEC
  0
SECTION
  2
OBJECTS
  0
DICTIONARY
  5
C
330
0
100
AcDbDictionary
  3
ACAD_GROUP
350
D
  3
ACAD_MLINESTYLE
350
17
  0
DICTIONARY
  5
D
330
C
100
AcDbDictionary
  0
DICTIONARY
  5
1A
330
C
100
AcDbDictionary
  0
DICTIONARY
  5
17
330
C
100
AcDbDictionary
  3
STANDARD
350
18
  0
DICTIONARY
  5
19
330
C
100
AcDbDictionary
  0
ENDSEC
  0
EOF
